<svg xmlns="http://www.w3.org/2000/svg" xmlns:xlink="http://www.w3.org/1999/xlink" width="375" viewBox="0 0 375 375" height="375" version="1.0"><defs><clipPath id="a"><path d="M 133.230469 123.0625 L 241.816406 123.0625 L 241.816406 239.292969 L 133.230469 239.292969 Z M 133.230469 123.0625"/></clipPath><clipPath id="b"><path d="M 220.316406 231.496094 C 221.175781 231.003906 221.46875 229.90625 220.976562 229.046875 C 220.484375 228.1875 219.386719 227.890625 218.53125 228.382812 C 218.21875 228.566406 218.039062 228.664062 217.949219 228.71875 C 217.875 228.761719 217.78125 228.816406 217.949219 228.71875 C 218 228.6875 218.042969 228.660156 217.949219 228.71875 C 217.136719 229.1875 217.015625 229.257812 215.78125 229.835938 C 214.878906 230.253906 214.488281 231.324219 214.910156 232.230469 C 215.332031 233.132812 216.402344 233.519531 217.300781 233.101562 C 218.609375 232.492188 218.761719 232.402344 219.746094 231.832031 C 220.371094 231.46875 219.480469 231.980469 220.316406 231.496094 Z M 241.578125 127.851562 L 241.808594 153.007812 L 241.816406 153.007812 C 241.824219 154.003906 241.023438 154.816406 240.03125 154.824219 C 239.839844 154.824219 239.652344 154.800781 239.480469 154.746094 L 213.707031 148.296875 C 212.742188 148.058594 212.15625 147.082031 212.394531 146.117188 C 212.636719 145.152344 213.613281 144.566406 214.578125 144.804688 L 236.109375 150.191406 C 228.546875 139.214844 217.53125 131.78125 205.390625 128.527344 C 191.96875 124.925781 177.183594 126.433594 164.199219 133.890625 C 164.152344 133.921875 164.109375 133.945312 164.066406 133.972656 L 164.0625 133.96875 C 151.042969 141.496094 142.296875 153.59375 138.6875 167.066406 C 135.09375 180.5 136.601562 195.296875 144.050781 208.296875 C 144.078125 208.339844 144.105469 208.382812 144.128906 208.429688 L 144.125 208.429688 C 150.3125 219.152344 159.597656 226.980469 170.195312 231.429688 C 181.042969 235.980469 193.261719 236.996094 204.949219 233.964844 C 205.707031 233.761719 206.441406 233.558594 207.160156 233.339844 C 207.824219 233.136719 208.550781 232.894531 209.332031 232.617188 C 210.269531 232.289062 211.292969 232.78125 211.625 233.71875 C 211.953125 234.652344 211.460938 235.679688 210.527344 236.015625 C 209.816406 236.265625 209.039062 236.515625 208.203125 236.773438 C 207.402344 237.019531 206.617188 237.242188 205.847656 237.441406 C 193.378906 240.675781 180.351562 239.601562 168.800781 234.75 C 157.507812 230.007812 147.617188 221.667969 141.019531 210.230469 L 142.574219 209.328125 L 141.015625 210.230469 C 140.984375 210.179688 140.957031 210.125 140.929688 210.070312 C 132.992188 196.210938 131.386719 180.445312 135.214844 166.140625 C 139.0625 151.773438 148.378906 138.878906 162.265625 130.855469 L 163.164062 132.414062 L 162.265625 130.855469 C 162.320312 130.820312 162.371094 130.792969 162.425781 130.769531 C 176.273438 122.820312 192.027344 121.21875 206.320312 125.050781 C 218.78125 128.394531 230.140625 135.871094 238.164062 146.894531 L 237.992188 127.882812 C 237.984375 126.890625 238.78125 126.078125 239.769531 126.074219 C 240.761719 126.066406 241.570312 126.863281 241.578125 127.851562"/></clipPath><clipPath id="c"><path d="M 220.316406 231.496094 C 221.175781 231.003906 221.46875 229.90625 220.976562 229.046875 C 220.484375 228.1875 219.386719 227.890625 218.53125 228.382812 C 218.21875 228.566406 218.039062 228.664062 217.949219 228.71875 C 217.875 228.761719 217.78125 228.816406 217.949219 228.71875 C 218 228.6875 218.042969 228.660156 217.949219 228.71875 C 217.136719 229.1875 217.015625 229.257812 215.78125 229.835938 C 214.878906 230.253906 214.488281 231.324219 214.910156 232.230469 C 215.332031 233.132812 216.402344 233.519531 217.300781 233.101562 C 218.609375 232.492188 218.761719 232.402344 219.746094 231.832031 C 220.371094 231.46875 219.480469 231.980469 220.316406 231.496094 Z M 241.578125 127.851562 L 241.808594 153.007812 L 241.816406 153.007812 C 241.824219 154.003906 241.023438 154.816406 240.03125 154.824219 C 239.839844 154.824219 239.652344 154.800781 239.480469 154.746094 L 213.707031 148.296875 C 212.742188 148.058594 212.15625 147.082031 212.394531 146.117188 C 212.636719 145.152344 213.613281 144.566406 214.578125 144.804688 L 236.109375 150.191406 C 228.546875 139.214844 217.53125 131.78125 205.390625 128.527344 C 191.96875 124.925781 177.183594 126.433594 164.199219 133.890625 C 164.152344 133.921875 164.109375 133.945312 164.066406 133.972656 L 164.0625 133.96875 C 151.042969 141.496094 142.296875 153.59375 138.6875 167.066406 C 135.09375 180.5 136.601562 195.296875 144.050781 208.296875 C 144.078125 208.339844 144.105469 208.382812 144.128906 208.429688 L 144.125 208.429688 C 150.3125 219.152344 159.597656 226.980469 170.195312 231.429688 C 181.042969 235.980469 193.261719 236.996094 204.949219 233.964844 C 205.707031 233.761719 206.441406 233.558594 207.160156 233.339844 C 207.824219 233.136719 208.550781 232.894531 209.332031 232.617188 C 210.269531 232.289062 211.292969 232.78125 211.625 233.71875 C 211.953125 234.652344 211.460938 235.679688 210.527344 236.015625 C 209.816406 236.265625 209.039062 236.515625 208.203125 236.773438 C 207.402344 237.019531 206.617188 237.242188 205.847656 237.441406 C 193.378906 240.675781 180.351562 239.601562 168.800781 234.75 C 157.507812 230.007812 147.617188 221.667969 141.019531 210.230469 L 142.574219 209.328125 L 141.015625 210.230469 C 140.984375 210.179688 140.957031 210.125 140.929688 210.070312 C 132.992188 196.210938 131.386719 180.445312 135.214844 166.140625 C 139.0625 151.773438 148.378906 138.878906 162.265625 130.855469 L 163.164062 132.414062 L 162.265625 130.855469 C 162.320312 130.820312 162.371094 130.792969 162.425781 130.769531 C 176.273438 122.820312 192.027344 121.21875 206.320312 125.050781 C 218.78125 128.394531 230.140625 135.871094 238.164062 146.894531 L 237.992188 127.882812 C 237.984375 126.890625 238.78125 126.078125 239.769531 126.074219 C 240.761719 126.066406 241.570312 126.863281 241.578125 127.851562"/></clipPath><clipPath id="d"><path d="M 238.539062 104.476562 L 113.371094 126.566406 L 136.503906 257.875 L 261.675781 235.789062 Z M 238.539062 104.476562"/></clipPath><linearGradient x1="-.153" gradientTransform="matrix(18.15448 103.05008 -120.87773 21.33286 242.287 120.031)" xmlns:xlink="http://www.w3.org/1999/xlink" y1="0" x2="1.122" gradientUnits="userSpaceOnUse" y2="0" xlink:type="simple" xlink:actuate="onLoad" id="e" xlink:show="other"><stop stop-color="#3B85CB" offset="0"/><stop stop-color="#3B85CB" offset=".063"/><stop stop-color="#3B85CB" offset=".094"/><stop stop-color="#3B85CB" offset=".109"/><stop stop-color="#3B85CB" offset=".117"/><stop stop-color="#3A84CA" offset=".121"/><stop stop-color="#3A83CA" offset=".125"/><stop stop-color="#3A82C9" offset=".129"/><stop stop-color="#3A81C9" offset=".133"/><stop stop-color="#3A81C8" offset=".141"/><stop stop-color="#3A7FC8" offset=".145"/><stop stop-color="#3A7EC8" offset=".148"/><stop stop-color="#3A7DC7" offset=".152"/><stop stop-color="#3A7DC7" offset=".156"/><stop stop-color="#3A7CC6" offset=".16"/><stop stop-color="#3A7BC6" offset=".164"/><stop stop-color="#3A7AC5" offset=".168"/><stop stop-color="#3B7AC5" offset=".172"/><stop stop-color="#3B78C5" offset=".176"/><stop stop-color="#3B77C4" offset=".18"/><stop stop-color="#3B77C4" offset=".184"/><stop stop-color="#3C76C3" offset=".188"/><stop stop-color="#3C75C2" offset=".191"/><stop stop-color="#3C74C2" offset=".195"/><stop stop-color="#3C73C1" offset=".199"/><stop stop-color="#3D73C1" offset=".203"/><stop stop-color="#3D72C0" offset=".207"/><stop stop-color="#3E71C0" offset=".211"/><stop stop-color="#3F70BF" offset=".215"/><stop stop-color="#406FBF" offset=".219"/><stop stop-color="#406EBE" offset=".223"/><stop stop-color="#416CBE" offset=".227"/><stop stop-color="#416CBD" offset=".23"/><stop stop-color="#426BBD" offset=".234"/><stop stop-color="#436ABC" offset=".238"/><stop stop-color="#4369BC" offset=".242"/><stop stop-color="#4468BB" offset=".246"/><stop stop-color="#4567BA" offset=".25"/><stop stop-color="#4666B9" offset=".254"/><stop stop-color="#4766B9" offset=".258"/><stop stop-color="#4865B9" offset=".262"/><stop stop-color="#4964B8" offset=".266"/><stop stop-color="#4A63B8" offset=".27"/><stop stop-color="#4B62B7" offset=".273"/><stop stop-color="#4C61B7" offset=".277"/><stop stop-color="#4D60B6" offset=".281"/><stop stop-color="#4E5FB6" offset=".285"/><stop stop-color="#4E5FB5" offset=".289"/><stop stop-color="#505EB4" offset=".293"/><stop stop-color="#515CB3" offset=".297"/><stop stop-color="#525CB3" offset=".301"/><stop stop-color="#535BB2" offset=".305"/><stop stop-color="#545BB2" offset=".309"/><stop stop-color="#555AB2" offset=".313"/><stop stop-color="#5659B1" offset=".316"/><stop stop-color="#5858B1" offset=".32"/><stop stop-color="#5957B0" offset=".324"/><stop stop-color="#5A56B0" offset=".328"/><stop stop-color="#5C55AF" offset=".332"/><stop stop-color="#5D54AE" offset=".336"/><stop stop-color="#5E53AD" offset=".34"/><stop stop-color="#5F52AD" offset=".344"/><stop stop-color="#6052AD" offset=".348"/><stop stop-color="#6151AD" offset=".352"/><stop stop-color="#6251AD" offset=".355"/><stop stop-color="#6450AC" offset=".359"/><stop stop-color="#664FAC" offset=".363"/><stop stop-color="#674EAB" offset=".367"/><stop stop-color="#684DAB" offset=".371"/><stop stop-color="#694DAA" offset=".375"/><stop stop-color="#6B4BAA" offset=".379"/><stop stop-color="#6D4AA9" offset=".383"/><stop stop-color="#6E49A9" offset=".387"/><stop stop-color="#6F49A8" offset=".391"/><stop stop-color="#7048A8" offset=".395"/><stop stop-color="#7147A8" offset=".398"/><stop stop-color="#7346A7" offset=".402"/><stop stop-color="#7446A7" offset=".406"/><stop stop-color="#7545A6" offset=".41"/><stop stop-color="#7644A6" offset=".414"/><stop stop-color="#7844A6" offset=".418"/><stop stop-color="#7A43A5" offset=".422"/><stop stop-color="#7B42A5" offset=".426"/><stop stop-color="#7C41A4" offset=".43"/><stop stop-color="#7D40A4" offset=".434"/><stop stop-color="#7F3FA3" offset=".438"/><stop stop-color="#803EA3" offset=".441"/><stop stop-color="#813EA3" offset=".445"/><stop stop-color="#823DA2" offset=".449"/><stop stop-color="#833DA2" offset=".453"/><stop stop-color="#853CA2" offset=".457"/><stop stop-color="#863BA2" offset=".461"/><stop stop-color="#873AA1" offset=".465"/><stop stop-color="#893AA1" offset=".469"/><stop stop-color="#8A3AA1" offset=".473"/><stop stop-color="#8B39A1" offset=".477"/><stop stop-color="#8C39A0" offset=".48"/><stop stop-color="#8D38A0" offset=".484"/><stop stop-color="#8F38A0" offset=".488"/><stop stop-color="#9037A0" offset=".492"/><stop stop-color="#9137A0" offset=".496"/><stop stop-color="#9136A0" offset=".5"/><stop stop-color="#92359F" offset=".504"/><stop stop-color="#94349F" offset=".508"/><stop stop-color="#95349F" offset=".512"/><stop stop-color="#96339E" offset=".516"/><stop stop-color="#97329E" offset=".52"/><stop stop-color="#99329E" offset=".523"/><stop stop-color="#9A319E" offset=".527"/><stop stop-color="#9B319D" offset=".531"/><stop stop-color="#9C309D" offset=".535"/><stop stop-color="#9D309D" offset=".539"/><stop stop-color="#9E2F9D" offset=".543"/><stop stop-color="#9F2F9D" offset=".547"/><stop stop-color="#A02E9D" offset=".551"/><stop stop-color="#A12D9C" offset=".555"/><stop stop-color="#A22D9C" offset=".559"/><stop stop-color="#A32D9C" offset=".563"/><stop stop-color="#A42C9C" offset=".566"/><stop stop-color="#A52C9C" offset=".57"/><stop stop-color="#A62C9C" offset=".574"/><stop stop-color="#A62B9B" offset=".578"/><stop stop-color="#A72B9B" offset=".582"/><stop stop-color="#A82A9B" offset=".586"/><stop stop-color="#AA2A9B" offset=".59"/><stop stop-color="#AB299B" offset=".594"/><stop stop-color="#AC299B" offset=".598"/><stop stop-color="#AD289A" offset=".602"/><stop stop-color="#AD289A" offset=".605"/><stop stop-color="#AE279A" offset=".609"/><stop stop-color="#AF279A" offset=".613"/><stop stop-color="#B0279A" offset=".617"/><stop stop-color="#B0269A" offset=".621"/><stop stop-color="#B12699" offset=".625"/><stop stop-color="#B22599" offset=".629"/><stop stop-color="#B42599" offset=".633"/><stop stop-color="#B42499" offset=".637"/><stop stop-color="#B52398" offset=".641"/><stop stop-color="#B62398" offset=".645"/><stop stop-color="#B72398" offset=".648"/><stop stop-color="#B82398" offset=".652"/><stop stop-color="#B82398" offset=".656"/><stop stop-color="#B82298" offset=".664"/><stop stop-color="#BA2298" offset=".668"/><stop stop-color="#BB2298" offset=".672"/><stop stop-color="#BB2198" offset=".676"/><stop stop-color="#BC2198" offset=".68"/><stop stop-color="#BC2198" offset=".688"/><stop stop-color="#BD2097" offset=".691"/><stop stop-color="#BE2097" offset=".695"/><stop stop-color="#BE2097" offset=".699"/><stop stop-color="#BF2097" offset=".703"/><stop stop-color="#C01F97" offset=".707"/><stop stop-color="#C01F97" offset=".711"/><stop stop-color="#C11F97" offset=".715"/><stop stop-color="#C11F97" offset=".719"/><stop stop-color="#C21F97" offset=".723"/><stop stop-color="#C31E97" offset=".727"/><stop stop-color="#C41E96" offset=".73"/><stop stop-color="#C41D96" offset=".734"/><stop stop-color="#C51D96" offset=".738"/><stop stop-color="#C61C96" offset=".742"/><stop stop-color="#C61C96" offset=".75"/><stop stop-color="#C71C96" offset=".754"/><stop stop-color="#C81B96" offset=".758"/><stop stop-color="#C81B96" offset=".766"/><stop stop-color="#C91B96" offset=".77"/><stop stop-color="#CA1B96" offset=".773"/><stop stop-color="#CA1B95" offset=".777"/><stop stop-color="#CA1A95" offset=".781"/><stop stop-color="#CA1A95" offset=".785"/><stop stop-color="#CB1A95" offset=".789"/><stop stop-color="#CB1A95" offset=".797"/><stop stop-color="#CC1A95" offset=".813"/><stop stop-color="#CD1A95" offset=".82"/><stop stop-color="#CE1995" offset=".824"/><stop stop-color="#CE1995" offset=".828"/><stop stop-color="#CE1995" offset=".844"/><stop stop-color="#CF1995" offset=".848"/><stop stop-color="#CF1895" offset=".852"/><stop stop-color="#CF1895" offset=".859"/><stop stop-color="#CF1895" offset=".867"/><stop stop-color="#D01895" offset=".871"/><stop stop-color="#D01895" offset=".875"/><stop stop-color="#D01895" offset="1"/></linearGradient></defs><g clip-path="url(#a)"><g clip-path="url(#b)"><g clip-path="url(#c)"><g clip-path="url(#d)"><path fill="url(#e)" d="M 238.539062 104.476562 L 113.371094 126.566406 L 136.503906 257.875 L 261.675781 235.785156 Z M 238.539062 104.476562"/></g></g></g></g></svg>
